HIERARCHY
ROOT Hips
{
	OFFSET 0.00000 0.00000 0.00000
	CHANNELS 6 Xposition Yposition Zposition Zrotation Yrotation Xrotation 
	JOINT LHipJoint
	{
		OFFSET 0 0 0
		CHANNELS 3 Zrotation Yrotation Xrotation
		JOINT LeftHip
		{
			OFFSET 1.61328 -1.70571 0.84375
			CHANNELS 3 Zrotation Yrotation Xrotation
			JOINT LeftKnee
			{
				OFFSET 2.32400 -6.38513 0.00000
				CHANNELS 3 Zrotation Yrotation Xrotation
				JOINT LeftAnkle
				{
					OFFSET 2.58843 -7.11166 0.00000
					CHANNELS 3 Zrotation Yrotation Xrotation
					JOINT LeftToe
					{
						OFFSET 0.17200 -0.47257 2.47970
						CHANNELS 3 Zrotation Yrotation Xrotation
						End Site
						{
							OFFSET 0.00000 -0.00000 1.26912
						}
					}
				}
			}
		}
	}
	JOINT RHipJoint
	{
		OFFSET 0 0 0
		CHANNELS 3 Zrotation Yrotation Xrotation
		JOINT RightHip
		{
			OFFSET -1.49930 -1.70570 0.84375
			CHANNELS 3 Zrotation Yrotation Xrotation
			JOINT RightKnee
			{
				OFFSET -2.30458 -6.33178 0.00000
				CHANNELS 3 Zrotation Yrotation Xrotation
				JOINT RightAnkle
				{
					OFFSET -2.62261 -7.20556 0.00000
					CHANNELS 3 Zrotation Yrotation Xrotation
					JOINT RightToe
					{
						OFFSET -0.18709 -0.51403 2.51340
						CHANNELS 3 Zrotation Yrotation Xrotation
						End Site
						{
							OFFSET -0.00000 -0.00000 1.28858
						}
					}
				}
			}
		}
	}
	JOINT lowerback
	{
		OFFSET 0 0 0
		CHANNELS 3 Zrotation Yrotation Xrotation
		JOINT Chest
		{
			OFFSET -0.03798 2.19274 -0.19881
			CHANNELS 3 Zrotation Yrotation Xrotation
			JOINT Chest2
			{
				OFFSET -0.00024 2.19460 0.05248
				CHANNELS 3 Zrotation Yrotation Xrotation
				JOINT lowerneck
				{
					OFFSET 0 0 0
					CHANNELS 3 Zrotation Yrotation Xrotation
					JOINT Neck
					{
						OFFSET -0.00746 1.82323 0.17286
						CHANNELS 3 Zrotation Yrotation Xrotation
						JOINT Head
						{
							OFFSET 0.11826 1.82121 -0.27841
							CHANNELS 3 Zrotation Yrotation Xrotation
							End Site
							{
								OFFSET 0.03496 1.85543 -0.11495
							}
						}
					}
				}
				JOINT LeftCollar
				{
					OFFSET 0 0 0
					CHANNELS 3 Zrotation Yrotation Xrotation
					JOINT LeftShoulder
					{
						OFFSET 3.71926 0.78840 0.25473
CHANNELS 3 Zrotation Xrotation Yrotation
						JOINT LeftElbow
						{
OFFSET 0 -5.375870 0.000000
CHANNELS 3 Zrotation Xrotation Yrotation
							JOINT LeftWrist
							{
OFFSET 0 -3.359770 0.000000
CHANNELS 3 Zrotation Xrotation Yrotation
								JOINT lhand
								{
									OFFSET 0 0 0
CHANNELS 3 Zrotation Xrotation Yrotation
									JOINT LFingers
									{
OFFSET 0 -0.561860 0.000000
CHANNELS 3 Zrotation Xrotation Yrotation
										End Site
										{
OFFSET 0 -0.452990 0.000000
										}
									}
								}
								JOINT LThumb
								{
OFFSET 0 0.000000 0.000000
CHANNELS 3 Zrotation Xrotation Yrotation
									End Site
									{
OFFSET 0 -0.459900 0.459900
									}
								}
							}
						}
					}
				}
				JOINT RightCollar
				{
					OFFSET 0 0 0
					CHANNELS 3 Zrotation Yrotation Xrotation
					JOINT RightShoulder
					{
						OFFSET -3.65136 0.56074 0.01624
CHANNELS 3 Zrotation Xrotation Yrotation
						JOINT RightElbow
						{
OFFSET 0 -5.228190 0.000000
CHANNELS 3 Zrotation Xrotation Yrotation
							JOINT RightWrist
							{
OFFSET 0 -3.407640 0.000000
CHANNELS 3 Zrotation Xrotation Yrotation
								JOINT rhand
								{
									OFFSET 0 0 0
CHANNELS 3 Zrotation Xrotation Yrotation
									JOINT RFingers
									{
OFFSET 0 -0.583250 0.000000
CHANNELS 3 Zrotation Xrotation Yrotation
										End Site
										{
OFFSET 0 -0.470240 0.000000
										}
									}
								}
								JOINT RThumb
								{
OFFSET 0 0.000000 0.000000
CHANNELS 3 Zrotation Xrotation Yrotation
									End Site
									{
OFFSET 0 -0.477420 0.477420
									}
								}
							}
						}
					}
				}
			}
		}
	}
}
MOTION
Frames: 7
Frame Time: 0.008333333333333333
49.332700 16.682900 -7.739800 -61.841400 -85.366800 61.648500 0.000000 0.000000 0.000000 -16.092700 2.085900 -7.023200 1.873400 8.597300 24.543400 0.977100 0.486200 -18.865600 0.012000 -0.708000 -1.945600 0.000000 0.000000 0.000000 23.711800 5.785200 -7.006300 -2.822200 -10.401500 30.286900 -1.697000 0.604300 -24.467400 -0.822400 -5.786300 16.165500 1.715700 0.164900 -3.413400 1.439200 0.011300 3.404000 0.529600 0.026500 5.441400 -8.832400 -7.537500 -2.682600 14.246200 -9.627400 -6.422600 5.581600 -4.905900 -0.275600 0.000000 -0.000000 0.000000 -0.048800 -2.943500 -31.983800 11.606100 -19.211300 1.970800 17.055100 1.391300 -18.246400 0.000000 0.000000 0.000000 -7.125000 0.000000 0.000000 -10.758500 48.705700 0.993900 0.000000 -0.000000 0.000000 -1.383800 0.434800 20.211600 -13.143700 -21.497400 -2.505700 -20.514200 -2.816400 -5.699600 0.000000 0.000000 0.000000 7.125000 0.000000 -0.000000 4.595200 23.900000 2.346700
49.322530 16.678315 -7.747609 -63.703543 -85.152081 63.196530 0.000000 0.000000 0.000000 -15.728240 2.300473 -6.913924 1.907799 8.671337 24.772434 0.980385 0.399161 -18.865004 0.018354 -0.874893 -2.404630 0.000000 0.000000 0.000000 24.139649 5.980025 -6.455758 -2.790401 -10.347766 30.110511 -1.716509 0.327697 -24.695884 -0.824867 -5.794762 16.190141 1.863971 0.172266 -3.358527 1.493186 0.003167 3.563120 0.502541 0.026523 5.577761 -8.622334 -7.534658 -2.530504 14.077951 -9.631343 -6.505734 5.506003 -4.916300 -0.344886 0.000000 0.000000 0.000000 -0.005731 -4.261480 -32.513877 11.409362 -18.913003 1.906540 17.210463 1.289959 -18.174074 0.000000 0.000000 0.000000 -7.125000 0.000000 0.000000 -10.588306 48.655257 0.964572 0.000000 0.000000 0.000000 -1.333994 0.297161 20.386951 -13.197138 -21.575370 -2.525306 -20.502457 -2.983232 -5.779517 0.000000 0.000000 0.000000 7.125000 0.000000 0.000000 4.603101 23.815438 2.359796
49.329427 16.679500 -7.744622 -63.622692 -85.138352 63.111878 0.000000 0.000000 0.000000 -15.727503 2.302345 -6.953314 1.911078 8.678257 24.794010 0.978200 0.361734 -18.829970 0.017400 -0.852109 -2.342027 0.000000 0.000000 0.000000 24.134971 5.977628 -6.458277 -2.783473 -10.336056 30.071958 -1.712104 0.298875 -24.673188 -0.826609 -5.800666 16.207028 1.861135 0.113628 -3.354177 1.485244 -0.075355 3.581862 0.489609 -0.012328 5.594396 -8.582279 -7.505663 -2.524775 14.018989 -9.600503 -6.409589 5.480590 -4.898417 -0.326986 0.000000 0.000000 0.000000 0.140206 -4.689322 -33.862036 12.543825 -20.615040 2.290229 16.859708 0.322196 -18.739503 0.000000 0.000000 0.000000 -7.125000 0.000000 0.000000 -11.104022 49.175207 1.156199 0.000000 0.000000 0.000000 -1.380004 0.171226 20.721114 -13.376031 -21.835639 -2.591464 -20.498163 -3.298344 -5.711577 0.000000 0.000000 0.000000 7.125000 0.000000 0.000000 4.606965 23.887875 2.354058
49.333363 16.679646 -7.739928 -65.670336 -85.192806 65.148083 0.000000 0.000000 0.000000 -15.729253 2.324440 -6.930786 1.911209 8.678618 24.795099 0.982453 0.472026 -18.911315 0.016646 -0.832941 -2.289249 0.000000 0.000000 0.000000 24.134500 6.033094 -6.454047 -2.782100 -10.333700 30.064254 -1.699838 0.358403 -24.564835 -0.823418 -5.789808 16.175714 1.878072 0.104319 -3.341688 1.490953 -0.088544 3.569891 0.484844 -0.018472 5.574744 -8.507378 -7.447364 -2.501927 13.978746 -9.540481 -6.190171 5.453752 -4.864433 -0.279769 0.000000 0.000000 0.000000 0.284012 -4.586199 -35.612949 14.001897 -22.737278 2.828871 17.433401 -1.503203 -18.523615 0.000000 0.000000 0.000000 -7.125000 0.000000 0.000000 -10.487542 49.042976 1.056277 0.000000 0.000000 0.000000 -1.432264 0.045936 20.750271 -13.410579 -21.885881 -2.604366 -20.510205 -3.361625 -5.668246 0.000000 0.000000 0.000000 7.125000 0.000000 0.000000 4.598505 23.933471 2.344865
49.333761 16.679139 -7.734965 -68.429588 -85.259583 67.893938 0.000000 0.000000 0.000000 -15.731194 2.365796 -6.888431 1.911639 8.679600 24.798000 0.991332 0.605350 -19.046005 0.015961 -0.815445 -2.241048 0.000000 0.000000 0.000000 24.142498 6.109013 -6.439392 -2.780843 -10.331625 30.057337 -1.686494 0.401866 -24.453344 -0.809261 -5.740922 16.034586 1.881120 0.102829 -3.361165 1.510495 -0.093085 3.581268 0.503106 -0.021092 5.597888 -8.411476 -7.419527 -2.604859 13.913219 -9.525155 -5.842997 5.405426 -4.845698 -0.172371 0.000000 0.000000 0.000000 0.275992 -4.464751 -36.472975 14.842648 -23.926391 3.161840 17.796557 -2.217158 -17.815257 0.000000 0.000000 0.000000 -7.125000 0.000000 0.000000 -9.922786 48.376117 0.834041 0.000000 0.000000 0.000000 -1.481738 -0.064543 20.659173 -13.395302 -21.863655 -2.598653 -20.507606 -3.264931 -5.624895 0.000000 0.000000 0.000000 7.125000 0.000000 0.000000 4.600936 23.979712 2.341202
49.331104 16.678776 -7.730256 -71.014176 -85.297594 70.485537 0.000000 0.000000 0.000000 -15.719196 2.409007 -6.867491 1.912624 8.681596 24.804364 0.998640 0.714968 -19.157369 0.014776 -0.784938 -2.157180 0.000000 0.000000 0.000000 24.165364 6.217430 -6.423384 -2.781344 -10.332440 30.060017 -1.679456 0.477418 -24.378234 -0.814108 -5.757651 16.082725 1.888709 0.075766 -3.401271 1.545277 -0.133239 3.582965 0.531764 -0.041545 5.622643 -8.375685 -7.374313 -2.686867 13.828107 -9.478353 -5.603295 5.366191 -4.812874 -0.101281 0.000000 0.000000 0.000000 0.109104 -4.444747 -36.505699 14.903700 -24.011750 3.186678 17.770855 -2.289978 -17.953399 0.000000 0.000000 0.000000 -7.125000 0.000000 0.000000 -9.988994 48.513106 0.873675 0.000000 0.000000 0.000000 -1.491935 -0.046832 20.591781 -13.403120 -21.874992 -2.601548 -20.476173 -3.332601 -5.651820 0.000000 0.000000 0.000000 7.125000 0.000000 0.000000 4.623945 23.952326 2.355879
49.325694 16.677465 -7.726482 -72.482157 -85.334655 71.933875 0.000000 0.000000 0.000000 -15.731199 2.456162 -6.814659 1.912882 8.682165 24.806085 1.004491 0.777299 -19.236898 0.015418 -0.800704 -2.200489 0.000000 0.000000 0.000000 24.170280 6.293989 -6.362924 -2.782456 -10.334320 30.066152 -1.679304 0.494155 -24.371684 -0.813953 -5.757168 16.081395 1.874051 0.014890 -3.432835 1.545571 -0.215834 3.605145 0.533648 -0.082894 5.663704 -8.384294 -7.322047 -2.775376 13.812675 -9.413565 -5.466137 5.358450 -4.774173 -0.054547 0.000000 0.000000 0.000000 -0.023857 -4.356166 -36.092764 14.422746 -23.335792 2.993561 17.723010 -1.958622 -18.041253 0.000000 0.000000 0.000000 -7.125000 0.000000 0.000000 -10.061159 48.595667 0.900755 0.000000 0.000000 0.000000 -1.418236 0.030399 20.512987 -13.441859 -21.931179 -2.615990 -20.107015 -3.333128 -5.163285 0.000000 0.000000 0.000000 7.125000 0.000000 0.000000 4.905476 24.484573 2.439804
